<svg xmlns="http://www.w3.org/2000/svg" version="1.1" xmlns:xlink="http://www.w3.org/1999/xlink" xmlns:svgjs="http://svgjs.dev/svgjs" width="2000" height="2007" viewBox="0 0 2000 2007"><g transform="matrix(1,0,0,1,0,-3.5711743772237696)"><svg viewBox="0 0 280 281" data-background-color="#f0e9e6" preserveAspectRatio="xMidYMid meet" height="2007" width="2000" xmlns="http://www.w3.org/2000/svg" xmlns:xlink="http://www.w3.org/1999/xlink"><g id="tight-bounds" transform="matrix(1,0,0,1,0,0.49999999999994316)"><svg viewBox="0 0 280 280" height="280" width="280"><g><svg viewBox="0 0 280 280" height="280" width="280"><g><svg viewBox="0 0 280 280" height="280" width="280"><g id="textblocktransform"><svg viewBox="0 0 280 280" height="280" width="280" id="textblock"><g><svg viewBox="0 0 280 280" height="280" width="280"><g transform="matrix(1,0,0,1,57.50420886156945,57.50420886156945)"><svg viewBox="0 0 164.9915822768611 164.9915822768611" height="164.9915822768611" width="164.9915822768611"><g id="icon-0"><circle r="82" cx="82.49579113843055" cy="82.49579113843055" fill="#7f8cd9" data-fill-palette-color="accent"></circle><svg xmlns="http://www.w3.org/2000/svg" xmlns:xlink="http://www.w3.org/1999/xlink" version="1.1" x="24.74873734152917" y="24.748737341529164" viewBox="5.628 8.499268260600635 88.746 83.00173173939937" enable-background="new 0 0 100 100" xml:space="preserve" height="115.49410759380275" width="115.49410759380275" class="icon-jxe-0" data-fill-palette-color="quaternary" id="jxe-0"><path d="M94.374 91.501L91.416 78.242A11.63 11.63 0 0 0 85.477 71.949L85.758 71.929 64.005 63.874 64.024 56.829A31.8 31.8 0 0 0 68.009 47.586C69.897 46.713 71.502 43.862 72.068 40.23 72.388 38.161 72.32 36.14 71.874 34.54 71.344 32.639 70.313 31.474 68.979 31.256L69.111 29.984S69.857 22.173 65.905 18.023C65.492 17.592 65.115 17.299 64.764 17.105 64.764 17.105 64.916 10.868 60.36 9.35 60.36 9.35 31.082 3.784 31.082 21.126L31.248 29.985 31.38 31.28C30.091 31.534 29.093 32.684 28.577 34.541 28.129 36.141 28.06 38.162 28.384 40.231 28.932 43.759 30.441 46.542 32.254 47.504 33.199 51.328 34.974 55.168 37.313 58.37L37.321 63.488 16.283 71.279C12.884 72.236 9.954 74.704 8.558 78.242L5.628 91.501H42.315L41.409 84.23 46.864 80.437 48.437 83.667 45.672 91.501H55.795L53.032 83.667 54.603 80.437 59.938 84.147 59.022 91.501zM50.709 74.607L39.66 67.021V62.623L39.658 61.157C40.019 61.524 40.387 61.877 40.762 62.215 43.531 64.688 46.739 66.244 50.143 66.244 53.544 66.244 56.747 64.685 59.514 62.214A24 24 0 0 0 61.68 59.999L61.675 63.012 61.672 67.077zM37.307 53.974C35.98 51.568 34.97 48.948 34.395 46.389A1.17 1.17 0 0 0 33.54 45.511C32.682 45.295 31.216 43.214 30.696 39.87 30.425 38.151 30.478 36.437 30.83 35.169 31.051 34.387 31.349 33.902 31.628 33.689L32.211 39.31C33.171 39.31 33.277 38.241 33.277 38.241V33.962C33.277 33.823 33.28 33.696 33.287 33.566L33.294 33.563A1.17 1.17 0 0 0 33.837 32.573V31.577C34.069 31.361 34.391 31.245 34.844 31.245 36.155 31.245 36.155 29.932 36.155 29.932V27.555C47.912 27.359 52.421 26.007 52.421 26.007S57.856 24.642 61.514 22.066C62.41 22.53 64.198 23.846 64.198 26.947V29.932S64.198 31.245 65.512 31.245C65.921 31.245 66.219 31.344 66.449 31.52V32.666C66.449 33.081 66.669 33.465 67.025 33.676 67.043 33.683 67.059 33.686 67.073 33.696 67.073 33.784 67.08 33.867 67.08 33.962V38.241S67.184 39.31 68.147 39.31L68.736 33.618C69.018 33.777 69.367 34.277 69.616 35.17 69.969 36.439 70.019 38.152 69.755 39.871 69.219 43.311 67.7 45.393 66.856 45.518 66.377 45.588 65.991 45.946 65.885 46.419 65.351 48.773 64.451 51.18 63.277 53.425A29 29 0 0 1 61.495 56.384C60.176 58.298 58.649 59.988 56.986 61.276 54.878 62.913 52.548 63.905 50.144 63.905 47.737 63.905 45.408 62.911 43.301 61.276 41.988 60.258 40.76 58.996 39.655 57.566A27.5 27.5 0 0 1 37.307 53.974M41.036 81.258L39.66 70.225 48.339 76.183zM53.102 76.166L61.671 70.28 60.311 81.176z" fill="#f0e9e6" data-fill-palette-color="quaternary"></path></svg></g></svg></g><g id="text-0"><path d="M6.61 102.706l2.435-7.414c0.716-2.181 1.907-3.719 3.571-4.615 1.671-0.893 3.588-0.984 5.75-0.274 2.169 0.712 3.751 2.143 4.748 4.294 0.999 2.144 1.11 4.399 0.333 6.765v0l-0.641 1.952 8.88 2.46-1.502 4.573-8.169-3.138zM12.093 97.66v0l-0.55 1.674 7.978 2.885 0.763-2.325c0.375-1.142 0.292-2.148-0.249-3.018-0.547-0.872-1.516-1.537-2.907-1.993v0c-2.481-0.815-4.159 0.111-5.035 2.777z" fill="#7f8cd9" data-fill-palette-color="primary"></path><path d="M20.602 86.189v0l1.087-4.315c1.75 0.625 3.385 1.271 4.905 1.939v0c-2.068-3.454-2.677-6.042-1.827-7.764v0l4.851 2.845c-0.615 1.246-0.987 2.287-1.115 3.122-0.131 0.826-0.048 1.781 0.249 2.863v0l1.155 0.571 7.759 3.393-1.328 4.712-7.65-4.249c-2.919-1.337-5.614-2.375-8.086-3.117z" fill="#7f8cd9" data-fill-palette-color="primary"></path><path d="M35.809 78.409c-2.553-1.714-4.252-3.85-5.098-6.407-0.848-2.567-0.655-4.77 0.58-6.609 1.239-1.845 2.797-2.877 4.674-3.096 1.881-0.225 3.808 0.325 5.782 1.65v0c2.625 1.763 4.367 3.89 5.224 6.383 0.848 2.494 0.599 4.744-0.749 6.75v0c-1.111 1.655-2.652 2.606-4.62 2.854-1.973 0.252-3.904-0.256-5.793-1.525zM41.056 68.336v0c-2.887-1.938-4.991-1.924-6.312 0.043v0c-1.377 2.051-0.714 3.984 1.989 5.799v0c1.416 0.951 2.717 1.404 3.903 1.359 1.182-0.039 2.092-0.532 2.728-1.48 0.632-0.942 0.748-1.903 0.348-2.883-0.399-0.971-1.284-1.917-2.656-2.838z" fill="#7f8cd9" data-fill-palette-color="primary"></path><path d="M39.653 40.822l2.315 3.559c-0.751 0.517-1.368 1.046-1.852 1.586-0.479 0.535-0.666 1.066-0.561 1.593 0.11 0.531 0.565 1.155 1.366 1.871v0l2.524 2.314 2.593-2.896 1.929 2.253-2.331 2.604 3.784 3.428 6.564 5.349-2.569 4.214-6.224-6.153-4.362-3.702-1.579 1.763-1.929-2.253 1.27-1.419-2.061-1.804c-1.591-1.424-2.505-3.125-2.743-5.104-0.233-1.984 0.281-3.681 1.544-5.092v0c0.672-0.75 1.446-1.454 2.322-2.111z" fill="#7f8cd9" data-fill-palette-color="primary"></path><path d="M63.334 51.496v0c0.519-0.467 0.942-1.091 1.269-1.872 0.331-0.776 0.535-1.443 0.611-2v0l0.123-0.842 2.575 0.392c0.094 0.466 0.132 1.065 0.112 1.796-0.024 0.726-0.102 1.402-0.235 2.027-0.132 0.616-0.414 1.321-0.846 2.116-0.436 0.79-0.994 1.49-1.673 2.1v0c-1.442 1.298-3.109 1.809-5.001 1.533-1.896-0.281-3.621-1.284-5.174-3.011v0c-1.958-2.176-3.044-4.653-3.259-7.431-0.205-2.777 0.538-4.927 2.23-6.449v0c1.303-1.172 2.643-1.719 4.023-1.642 1.379 0.087 2.661 0.789 3.846 2.107v0c0.705 0.784 1.374 1.793 2.008 3.03v0l-0.034 1.046-6.133 6.628c2.118 1.742 3.971 1.9 5.558 0.472zM55.878 43.209v0c-0.784 0.705-1.159 1.612-1.127 2.721 0.036 1.114 0.452 2.203 1.246 3.268v0l4.039-4.65c-0.318-0.464-0.596-0.828-0.834-1.092v0c-1.073-1.193-2.181-1.275-3.324-0.247z" fill="#7f8cd9" data-fill-palette-color="primary"></path><path d="M76.226 42.004v0c1.034-0.7 1.242-1.506 0.626-2.418v0c-0.218-0.322-0.644-0.472-1.277-0.449-0.638 0.027-1.374 0.12-2.207 0.279-0.833 0.159-1.689 0.284-2.567 0.375-0.882 0.086-1.752-0.026-2.611-0.336-0.868-0.312-1.571-0.866-2.109-1.661v0c-0.899-1.329-1.099-2.888-0.6-4.677 0.503-1.784 1.519-3.193 3.048-4.228v0c0.712-0.482 1.469-0.872 2.27-1.172 0.8-0.291 1.638-0.472 2.513-0.546v0l0.462 4.977c-0.218-0.023-0.496-0.05-0.832-0.081-0.343-0.027-0.915 0.019-1.717 0.141-0.802 0.121-1.436 0.34-1.903 0.656-0.461 0.312-0.746 0.659-0.853 1.039-0.111 0.375-0.042 0.746 0.206 1.113 0.248 0.367 0.839 0.502 1.771 0.407 0.938-0.1 1.918-0.269 2.94-0.507 1.024-0.247 2.117-0.25 3.279-0.006 1.162 0.243 2.072 0.851 2.731 1.824v0c0.941 1.39 1.197 2.996 0.768 4.818-0.434 1.826-1.396 3.243-2.886 4.251v0c-0.951 0.643-1.979 1.035-3.083 1.176-1.105 0.14-1.979 0.124-2.623-0.049v0l-0.957-0.264 0.5-4.327c0.228 0.073 0.531 0.155 0.909 0.248 0.379 0.092 1.024 0.118 1.936 0.075 0.916-0.036 1.671-0.256 2.266-0.658z" fill="#7f8cd9" data-fill-palette-color="primary"></path><path d="M89.414 34.377v0c1.114-0.565 1.422-1.338 0.924-2.32v0c-0.176-0.347-0.579-0.549-1.21-0.606-0.637-0.054-1.378-0.054-2.225-0.001-0.846 0.053-1.711 0.069-2.594 0.05-0.886-0.025-1.735-0.246-2.548-0.662-0.822-0.419-1.45-1.056-1.884-1.913v0c-0.725-1.431-0.728-3.003-0.008-4.715 0.723-1.706 1.908-2.977 3.555-3.811v0c0.766-0.388 1.567-0.681 2.401-0.878 0.831-0.188 1.684-0.263 2.561-0.225v0l-0.167 4.995c-0.213-0.05-0.485-0.111-0.816-0.185-0.337-0.07-0.91-0.096-1.721-0.076-0.811 0.019-1.467 0.157-1.97 0.412-0.497 0.252-0.823 0.56-0.977 0.924-0.157 0.358-0.136 0.735 0.065 1.13 0.2 0.395 0.769 0.604 1.706 0.625 0.943 0.019 1.936-0.026 2.98-0.133 1.047-0.117 2.132 0.018 3.254 0.406 1.122 0.387 1.949 1.105 2.48 2.152v0c0.759 1.497 0.811 3.123 0.157 4.877-0.66 1.757-1.792 3.042-3.397 3.855v0c-1.024 0.519-2.093 0.779-3.207 0.779-1.114 0-1.979-0.126-2.596-0.378v0l-0.916-0.382 1.04-4.23c0.217 0.101 0.507 0.221 0.871 0.36 0.364 0.139 1.001 0.245 1.911 0.318 0.913 0.079 1.69-0.044 2.331-0.368z" fill="#7f8cd9" data-fill-palette-color="primary"></path><path d="M93.371 17.081l4.163-2.6 2.855 8.496 3.445 7.735-4.157 2.587-2.788-8.295zM90.89 11.423c-0.293-0.75-0.264-1.533 0.087-2.348 0.349-0.821 0.902-1.38 1.659-1.675 0.763-0.298 1.425-0.319 1.987-0.063 0.561 0.256 1.003 0.797 1.326 1.622 0.325 0.832 0.318 1.652-0.022 2.463-0.337 0.816-0.88 1.371-1.63 1.664-0.744 0.291-1.425 0.272-2.044-0.055-0.616-0.322-1.07-0.858-1.363-1.608z" fill="#7f8cd9" data-fill-palette-color="primary"></path><path d="M105.761 23.199c-0.762-2.979-0.606-5.704 0.467-8.175 1.078-2.479 2.69-3.993 4.835-4.542 2.153-0.551 4.002-0.282 5.549 0.806 1.553 1.086 2.623 2.78 3.212 5.082v0c0.783 3.063 0.665 5.81-0.356 8.24-1.029 2.425-2.714 3.937-5.056 4.536v0c-1.932 0.494-3.714 0.177-5.346-0.951-1.639-1.126-2.741-2.792-3.305-4.996zM116.386 19.183v0c-0.862-3.369-2.44-4.76-4.736-4.173v0c-2.393 0.612-3.187 2.495-2.381 5.649v0c0.422 1.652 1.091 2.857 2.005 3.614 0.908 0.759 1.914 0.997 3.021 0.714 1.099-0.281 1.826-0.921 2.18-1.919 0.35-0.99 0.32-2.285-0.089-3.885z" fill="#7f8cd9" data-fill-palette-color="primary"></path><path d="M135.451 16.206c-0.164-1.643-0.417-2.725-0.759-3.243-0.342-0.519-1.037-0.726-2.086-0.622-1.049 0.105-2.2 0.641-3.452 1.609v0l0.26 2.605 1.23 8.378-4.701 1.37-0.447-8.74c-0.412-3.184-0.958-6.02-1.637-8.509v0l4.235-1.364c0.305 1.366 0.56 2.704 0.765 4.012v0c0.306-0.516 0.663-1.028 1.071-1.533 0.408-0.513 1.07-1.109 1.988-1.787 0.923-0.686 1.926-1.083 3.008-1.191 1.089-0.109 2.043 0.225 2.863 1 0.826 0.774 1.312 1.89 1.457 3.346v0l0.188 4.019 1.248 8.558-4.741 1.374z" fill="#7f8cd9" data-fill-palette-color="primary"></path><path d="M148.634 25.277c-1.407-0.088-2.532-0.608-3.373-1.561-0.842-0.954-1.216-2.191-1.121-3.712 0.094-1.514 0.869-2.784 2.325-3.811 1.457-1.033 3.177-1.487 5.16-1.364v0l2.442 0.152 0.038-0.603c0.073-1.173-0.115-1.988-0.564-2.446-0.455-0.466-1.34-0.739-2.653-0.821v0c-0.549-0.034-1.21 0.039-1.981 0.22-0.765 0.181-1.627 0.481-2.589 0.898v0l-0.869-2.899c1.076-0.653 2.366-1.218 3.869-1.697 1.51-0.485 2.744-0.697 3.702-0.637v0c3.752 0.233 5.515 2.169 5.289 5.807v0l-0.437 7.036c-0.083 1.34 0.242 2.86 0.977 4.56v0l-3.9 1.382c-0.525-1.19-0.903-2.246-1.134-3.168v0c-1.443 1.901-3.17 2.789-5.181 2.665zM150.37 21.713v0c0.958 0.06 2.078-0.365 3.358-1.274v0l0.149-2.403c-1.248-0.367-2.268-0.575-3.058-0.624v0c-1.508-0.094-2.303 0.529-2.387 1.87v0c-0.043 0.697 0.113 1.265 0.469 1.704 0.356 0.446 0.845 0.688 1.469 0.727z" fill="#7f8cd9" data-fill-palette-color="primary"></path><path d="M167.224 0.05l5.005-0.05-3.584 18.133-1.045 8.404-4.935 0.061 1.906-8.541z" fill="#7f8cd9" data-fill-palette-color="primary"></path><path d="M178.35 26.932l4.003-2.643c1.188 2.631 2.733 4.305 4.635 5.025v0c0.986 0.373 1.864 0.442 2.634 0.209 0.772-0.239 1.296-0.723 1.571-1.452 0.275-0.728 0.147-1.48-0.386-2.255-0.526-0.773-1.228-1.544-2.107-2.314-0.873-0.768-1.723-1.584-2.551-2.45-0.824-0.857-1.428-1.871-1.811-3.042-0.377-1.169-0.323-2.393 0.162-3.675v0c0.762-2.016 2.262-3.44 4.5-4.274 2.238-0.833 4.513-0.813 6.824 0.06v0c1.049 0.396 2.023 0.894 2.924 1.493 0.907 0.601 1.739 1.285 2.497 2.053v0l-4.148 4.052c-0.44-0.733-1.126-1.513-2.055-2.338-0.93-0.825-1.806-1.393-2.629-1.704-0.816-0.309-1.551-0.36-2.202-0.154-0.656 0.197-1.107 0.622-1.354 1.275-0.244 0.647-0.102 1.361 0.428 2.143 0.526 0.773 1.225 1.543 2.098 2.31 0.881 0.764 1.743 1.57 2.584 2.42 0.85 0.845 1.464 1.852 1.841 3.02 0.379 1.162 0.326 2.384-0.158 3.665v0c-0.797 2.11-2.334 3.639-4.609 4.589-2.279 0.94-4.539 0.987-6.781 0.139v0c-1.683-0.636-3.023-1.602-4.018-2.897v0c-0.879-1.129-1.453-2.053-1.72-2.77v0z" fill="#7f8cd9" data-fill-palette-color="primary"></path><path d="M203.323 37.492v0c0.61 0.34 1.338 0.537 2.183 0.592 0.842 0.061 1.538 0.038 2.09-0.069v0l0.836-0.157 0.464 2.563c-0.41 0.24-0.964 0.47-1.663 0.688-0.695 0.213-1.359 0.357-1.993 0.435-0.625 0.074-1.384 0.036-2.276-0.115-0.889-0.157-1.732-0.457-2.53-0.901v0c-1.695-0.944-2.719-2.355-3.071-4.234-0.349-1.885 0.041-3.842 1.171-5.871v0c1.424-2.557 3.415-4.388 5.973-5.492 2.561-1.095 4.836-1.088 6.824 0.019v0c1.531 0.852 2.483 1.943 2.857 3.273 0.365 1.332 0.116 2.773-0.746 4.322v0c-0.513 0.921-1.251 1.881-2.215 2.881v0l-1.001 0.307-8.259-3.652c-0.961 2.569-0.509 4.373 1.356 5.411zM208.745 27.752v0c-0.921-0.513-1.901-0.574-2.94-0.185-1.042 0.396-1.938 1.142-2.686 2.239v0l5.708 2.313c0.336-0.451 0.59-0.832 0.762-1.143v0c0.78-1.402 0.499-2.477-0.844-3.224z" fill="#7f8cd9" data-fill-palette-color="primary"></path><path d="M220.224 31.846v0l4.055 1.833c-0.924 1.612-1.85 3.107-2.776 4.484v0c3.766-1.424 6.42-1.566 7.965-0.424v0l-3.658 4.271c-1.118-0.826-2.076-1.376-2.875-1.649-0.79-0.275-1.744-0.362-2.862-0.262v0l-0.766 1.036-4.712 7.037-4.403-2.141 5.535-6.778c1.832-2.637 3.331-5.106 4.497-7.407z" fill="#7f8cd9" data-fill-palette-color="primary"></path><path d="M231.376 50.231l-3.139 5.135 0.339 0.33 4.292-2.709 7.578-5.02 2.819 3.5-8.148 4.508-7.493 4.456-4.783-3.892 4.57-7.748 4.238-8.071 4.133 2.769z" fill="#7f8cd9" data-fill-palette-color="primary"></path><path d="M246.313 55.563l3.784 3.126-7.156 5.397-6.247 5.716-3.77-3.125 6.987-5.269zM250.895 51.418c0.619-0.516 1.371-0.736 2.255-0.659 0.89 0.071 1.594 0.419 2.114 1.043 0.524 0.629 0.754 1.251 0.688 1.864-0.065 0.614-0.439 1.204-1.119 1.772-0.686 0.571-1.467 0.825-2.343 0.759-0.881-0.061-1.579-0.401-2.095-1.02-0.511-0.614-0.709-1.266-0.594-1.956 0.11-0.686 0.475-1.287 1.094-1.803z" fill="#7f8cd9" data-fill-palette-color="primary"></path><path d="M253.735 71.838c-0.58-0.88-1.344-1.349-2.291-1.408-0.946-0.068-2.068 0.326-3.369 1.183-1.3 0.857-2.185 1.79-2.654 2.799-0.465 1.014-0.387 1.992 0.233 2.934v0c0.314 0.476 0.773 0.849 1.377 1.119 0.606 0.26 1.136 0.413 1.592 0.457v0l0.696 0.012-0.569 2.522c-0.138 0.01-0.326 0.03-0.565 0.059-0.238 0.029-0.707 0.02-1.404-0.027-0.689-0.045-1.336-0.148-1.943-0.312-0.612-0.16-1.267-0.452-1.964-0.876-0.696-0.434-1.269-0.992-1.72-1.676v0c-0.987-1.497-1.179-3.118-0.578-4.865 0.596-1.743 1.874-3.262 3.836-4.555v0c2.444-1.611 5.055-2.315 7.834-2.113 2.777 0.212 4.792 1.268 6.044 3.168v0c0.384 0.583 0.683 1.218 0.895 1.906 0.211 0.697 0.334 1.464 0.371 2.301v0l-5.077 0.331c0.088-1.087-0.161-2.073-0.744-2.959z" fill="#7f8cd9" data-fill-palette-color="primary"></path><path d="M252.557 90.794v0c0.306 0.627 0.79 1.206 1.451 1.734 0.655 0.532 1.24 0.911 1.755 1.139v0l0.775 0.349-1.085 2.368c-0.474-0.038-1.06-0.166-1.757-0.386-0.691-0.223-1.319-0.484-1.884-0.784-0.556-0.297-1.156-0.762-1.802-1.396-0.639-0.637-1.159-1.365-1.56-2.185v0c-0.851-1.744-0.884-3.487-0.098-5.23 0.791-1.746 2.231-3.128 4.319-4.147v0c2.63-1.284 5.311-1.647 8.04-1.089 2.727 0.567 4.589 1.873 5.587 3.918v0c0.768 1.575 0.926 3.014 0.472 4.319-0.463 1.302-1.491 2.341-3.083 3.118v0c-0.947 0.462-2.102 0.828-3.465 1.097v0l-0.997-0.32-4.686-7.719c-2.258 1.558-2.919 3.296-1.982 5.214zM262.575 85.905v0c-0.462-0.947-1.231-1.558-2.306-1.833-1.081-0.272-2.243-0.172-3.484 0.3v0l3.359 5.162c0.533-0.178 0.96-0.345 1.279-0.501v0c1.442-0.704 1.826-1.746 1.152-3.128z" fill="#7f8cd9" data-fill-palette-color="primary"></path><path d="M258.139 105.8v0c0.389 1.187 1.106 1.609 2.152 1.266v0c0.37-0.121 0.631-0.489 0.783-1.104 0.15-0.621 0.263-1.354 0.339-2.199 0.077-0.845 0.191-1.702 0.345-2.571 0.159-0.872 0.507-1.678 1.041-2.418 0.539-0.749 1.264-1.273 2.177-1.572v0c1.525-0.499 3.079-0.263 4.661 0.709 1.577 0.974 2.652 2.338 3.227 4.093v0c0.268 0.817 0.435 1.652 0.503 2.505 0.059 0.849 0.004 1.705-0.166 2.566v0l-4.912-0.923c0.082-0.203 0.184-0.463 0.307-0.779 0.121-0.322 0.233-0.885 0.336-1.689 0.104-0.804 0.068-1.474-0.107-2.01-0.173-0.53-0.428-0.898-0.765-1.106-0.33-0.21-0.706-0.246-1.127-0.107-0.421 0.138-0.714 0.668-0.877 1.59-0.162 0.929-0.269 1.918-0.321 2.967-0.044 1.053-0.342 2.104-0.896 3.154-0.553 1.05-1.388 1.758-2.504 2.124v0c-1.595 0.522-3.209 0.327-4.844-0.586-1.636-0.919-2.734-2.234-3.294-3.943v0c-0.357-1.091-0.451-2.187-0.283-3.288 0.169-1.101 0.425-1.937 0.768-2.509v0l0.517-0.847 4.023 1.67c-0.133 0.199-0.295 0.468-0.488 0.807-0.193 0.339-0.394 0.952-0.605 1.84-0.217 0.891-0.214 1.677 0.01 2.36z" fill="#7f8cd9" data-fill-palette-color="primary"></path><path d="M13.061 143.26c0-1.762 1.428-3.19 3.19-3.19 1.762 0 3.19 1.428 3.19 3.19 0 1.762-1.428 3.19-3.19 3.189-1.762 0-3.19-1.428-3.19-3.189z" fill="#7f8cd9" data-fill-palette-color="primary"></path><path d="M266.83 143.26c0-1.762 1.428-3.19 3.189-3.19 1.762 0 3.19 1.428 3.19 3.19 0 1.762-1.428 3.19-3.19 3.189-1.762 0-3.19-1.428-3.189-3.189z" fill="#7f8cd9" data-fill-palette-color="primary"></path></g><g id="text-1"><path d="M35.991 174.165l2.435 7.415c0.716 2.181 0.669 4.126-0.141 5.833-0.816 1.71-2.306 2.919-4.468 3.629-2.169 0.712-4.292 0.498-6.369-0.643-2.075-1.134-3.502-2.885-4.279-5.251v0l-0.641-1.952-8.609 3.283-1.502-4.573 8.439-2.316zM34.567 181.48v0l-0.55-1.675-8.134 2.406 0.763 2.325c0.375 1.142 1.038 1.903 1.99 2.283 0.958 0.378 2.132 0.339 3.522-0.118v0c2.481-0.815 3.284-2.555 2.409-5.221z" fill="#7f8cd9" data-fill-palette-color="primary"></path><path d="M34.985 193.227v0l2.766 3.486c-1.56 1.01-3.067 1.915-4.521 2.716v0c4 0.458 6.425 1.548 7.275 3.27v0l-5.208 2.122c-0.615-1.246-1.216-2.174-1.801-2.783-0.576-0.606-1.385-1.121-2.424-1.543v0l-1.156 0.57-7.411 4.098-2.934-3.919 8.024-3.491c2.836-1.505 5.299-3.014 7.39-4.526z" fill="#7f8cd9" data-fill-palette-color="primary"></path><path d="M32.757 210.159c2.553-1.714 5.173-2.479 7.86-2.294 2.697 0.187 4.663 1.2 5.898 3.039 1.239 1.845 1.604 3.678 1.096 5.499-0.504 1.826-1.743 3.402-3.716 4.726v0c-2.625 1.763-5.253 2.569-7.885 2.42-2.63-0.159-4.618-1.242-5.965-3.248v0c-1.111-1.655-1.409-3.441-0.892-5.357 0.513-1.921 1.714-3.516 3.604-4.785zM40.095 218.829v0c2.887-1.938 3.67-3.891 2.349-5.859v0c-1.377-2.051-3.417-2.169-6.121-0.354v0c-1.416 0.951-2.327 1.983-2.735 3.098-0.412 1.109-0.299 2.138 0.337 3.085 0.632 0.942 1.478 1.413 2.538 1.414 1.05-0.002 2.261-0.463 3.632-1.384z" fill="#7f8cd9" data-fill-palette-color="primary"></path><path d="M66.716 221.471l-3.792 1.908c-0.431-0.804-0.888-1.475-1.372-2.015-0.479-0.535-0.986-0.78-1.522-0.733-0.54 0.051-1.21 0.435-2.01 1.151v0l-2.578 2.253 2.593 2.896-2.453 1.669-2.331-2.604-3.824 3.383-6.041 5.934-3.905-3.018 6.802-5.507 4.161-3.928-1.579-1.763 2.453-1.669 1.27 1.418 2.02-1.849c1.591-1.424 3.382-2.145 5.376-2.163 1.998-0.013 3.628 0.686 4.89 2.096v0c0.672 0.75 1.286 1.597 1.842 2.541z" fill="#7f8cd9" data-fill-palette-color="primary"></path><path d="M55.73 243.475v0c0.519 0.467 1.184 0.822 1.996 1.064 0.807 0.247 1.491 0.38 2.053 0.398v0l0.85 0.033-0.119 2.602c-0.454 0.143-1.045 0.243-1.774 0.301-0.725 0.052-1.405 0.046-2.041-0.021-0.626-0.067-1.357-0.273-2.193-0.619-0.831-0.351-1.586-0.831-2.265-1.442v0c-1.442-1.298-2.126-2.902-2.051-4.811 0.08-1.915 0.896-3.736 2.45-5.463v0c1.958-2.176 4.307-3.517 7.046-4.023 2.74-0.496 4.957 0.016 6.649 1.539v0c1.303 1.172 1.988 2.448 2.056 3.827 0.059 1.38-0.505 2.729-1.69 4.047v0c-0.705 0.784-1.639 1.555-2.802 2.315v0l-1.044 0.077-7.237-5.401c-1.51 2.29-1.471 4.149 0.116 5.577zM63.186 235.188v0c-0.784-0.705-1.725-0.983-2.825-0.835-1.104 0.153-2.144 0.681-3.118 1.584v0l5.049 3.527c0.428-0.365 0.76-0.679 0.998-0.944v0c1.073-1.193 1.038-2.303-0.104-3.332z" fill="#7f8cd9" data-fill-palette-color="primary"></path><path d="M69.492 254.464v0c1.034 0.7 1.86 0.594 2.477-0.318v0c0.218-0.322 0.199-0.773-0.058-1.352-0.262-0.583-0.622-1.231-1.078-1.946-0.457-0.715-0.891-1.462-1.302-2.243-0.408-0.787-0.627-1.636-0.658-2.549-0.033-0.922 0.22-1.78 0.758-2.576v0c0.899-1.329 2.272-2.094 4.119-2.295 1.843-0.196 3.529 0.224 5.058 1.259v0c0.712 0.482 1.356 1.039 1.932 1.673 0.567 0.635 1.047 1.345 1.44 2.13v0l-4.449 2.279c-0.06-0.211-0.138-0.479-0.234-0.804-0.102-0.328-0.358-0.842-0.769-1.541-0.41-0.699-0.849-1.207-1.316-1.523-0.461-0.312-0.889-0.448-1.281-0.406-0.389 0.036-0.708 0.238-0.957 0.605-0.248 0.367-0.155 0.965 0.28 1.795 0.441 0.834 0.962 1.681 1.563 2.542 0.61 0.859 1.018 1.873 1.225 3.041 0.206 1.169-0.02 2.24-0.679 3.213v0c-0.941 1.39-2.337 2.224-4.188 2.504-1.856 0.276-3.53-0.091-5.02-1.1v0c-0.951-0.643-1.696-1.452-2.236-2.426-0.541-0.974-0.85-1.792-0.93-2.453v0l-0.11-0.987 4.203-1.143c0.017 0.238 0.053 0.551 0.108 0.936 0.055 0.386 0.271 0.994 0.649 1.826 0.374 0.837 0.858 1.457 1.453 1.859z" fill="#7f8cd9" data-fill-palette-color="primary"></path><path d="M83.982 262.858v0c1.114 0.565 1.92 0.356 2.418-0.626v0c0.176-0.347 0.1-0.792-0.227-1.334-0.333-0.545-0.771-1.144-1.314-1.795-0.543-0.651-1.068-1.339-1.574-2.062-0.503-0.729-0.828-1.545-0.973-2.447-0.148-0.911-0.005-1.794 0.428-2.65v0c0.725-1.431 1.991-2.362 3.799-2.794 1.804-0.426 3.529-0.221 5.175 0.614v0c0.766 0.388 1.475 0.861 2.127 1.417 0.642 0.559 1.208 1.203 1.697 1.932v0l-4.128 2.819c-0.086-0.202-0.197-0.457-0.333-0.767-0.142-0.313-0.461-0.791-0.956-1.433-0.495-0.642-0.994-1.091-1.497-1.346-0.497-0.252-0.938-0.332-1.323-0.241-0.382 0.085-0.673 0.325-0.873 0.72-0.2 0.395-0.032 0.977 0.504 1.746 0.542 0.772 1.165 1.547 1.87 2.325 0.713 0.775 1.246 1.73 1.597 2.864 0.351 1.134 0.261 2.225-0.27 3.272v0c-0.759 1.497-2.039 2.5-3.84 3.01-1.807 0.507-3.513 0.353-5.118-0.46v0c-1.024-0.519-1.865-1.228-2.524-2.126-0.659-0.898-1.069-1.671-1.231-2.317v0l-0.233-0.965 4.026-1.663c0.047 0.234 0.122 0.54 0.225 0.916 0.103 0.376 0.394 0.952 0.873 1.73 0.476 0.783 1.035 1.337 1.675 1.661z" fill="#7f8cd9" data-fill-palette-color="primary"></path><path d="M99.232 254.441l4.822 0.912-3.662 8.18-2.713 8.022-4.809-0.918 3.575-7.987zM101.244 248.6c0.293-0.75 0.845-1.306 1.657-1.666 0.814-0.367 1.599-0.402 2.355-0.107 0.763 0.298 1.264 0.732 1.503 1.301 0.239 0.569 0.197 1.266-0.126 2.092-0.325 0.832-0.887 1.43-1.685 1.795-0.801 0.372-1.577 0.411-2.327 0.118-0.744-0.291-1.232-0.766-1.465-1.427-0.235-0.654-0.205-1.356 0.088-2.106z" fill="#7f8cd9" data-fill-palette-color="primary"></path><path d="M104.85 266.882c0.762-2.979 2.206-5.295 4.334-6.948 2.135-1.657 4.276-2.212 6.422-1.663 2.153 0.551 3.646 1.674 4.481 3.371 0.841 1.698 0.967 3.698 0.378 6v0c-0.783 3.063-2.206 5.416-4.268 7.058-2.067 1.633-4.271 2.151-6.612 1.552v0c-1.932-0.494-3.343-1.627-4.234-3.401-0.897-1.775-1.064-3.765-0.501-5.969zM116.099 268.459v0c0.862-3.369 0.144-5.347-2.152-5.935v0c-2.393-0.612-3.994 0.659-4.8 3.814v0c-0.422 1.652-0.414 3.03 0.024 4.133 0.432 1.101 1.201 1.793 2.307 2.076 1.099 0.281 2.044 0.069 2.834-0.637 0.782-0.701 1.378-1.851 1.787-3.451z" fill="#7f8cd9" data-fill-palette-color="primary"></path><path d="M135.402 270.804c0.164-1.643 0.13-2.753-0.103-3.329-0.233-0.576-0.873-0.917-1.923-1.022-1.049-0.105-2.283 0.194-3.702 0.896v0l-0.259 2.605-0.449 8.456-4.879 0.414 1.289-8.655c0.225-3.202 0.25-6.091 0.074-8.666v0l4.422-0.5c0.029 1.399 0.015 2.761-0.043 4.084v0c0.402-0.446 0.853-0.876 1.353-1.292 0.501-0.422 1.268-0.875 2.302-1.359 1.041-0.49 2.102-0.681 3.184-0.573 1.089 0.109 1.958 0.624 2.608 1.545 0.657 0.922 0.913 2.112 0.768 3.568v0l-0.609 3.977-0.467 8.637-4.918 0.41z" fill="#7f8cd9" data-fill-palette-color="primary"></path><path d="M149.795 279.906c-1.407 0.088-2.587-0.29-3.541-1.132-0.954-0.842-1.478-2.023-1.572-3.544-0.094-1.514 0.518-2.871 1.835-4.07 1.317-1.205 2.968-1.87 4.951-1.992v0l2.442-0.152-0.037-0.603c-0.073-1.173-0.361-1.958-0.863-2.358-0.51-0.406-1.421-0.567-2.734-0.486v0c-0.549 0.034-1.196 0.189-1.939 0.464-0.736 0.274-1.555 0.679-2.457 1.212v0l-1.221-2.769c0.987-0.781 2.197-1.502 3.628-2.163 1.438-0.668 2.636-1.032 3.595-1.091v0c3.752-0.233 5.741 1.469 5.968 5.107v0l0.437 7.035c0.083 1.34 0.595 2.808 1.535 4.405v0l-3.698 1.854c-0.668-1.115-1.174-2.116-1.519-3.003v0c-1.197 2.065-2.8 3.161-4.81 3.286zM151.075 276.154v0c0.958-0.06 2.016-0.62 3.175-1.681v0l-0.15-2.402c-1.284-0.209-2.322-0.289-3.112-0.24v0c-1.508 0.094-2.22 0.811-2.136 2.151v0c0.043 0.697 0.269 1.241 0.676 1.632 0.408 0.398 0.924 0.578 1.547 0.54z" fill="#7f8cd9" data-fill-palette-color="primary"></path><path d="M161.271 251.803l4.701-1.717 2.671 18.29 1.819 8.27-4.632 1.705-1.053-8.688z" fill="#7f8cd9" data-fill-palette-color="primary"></path><path d="M182.647 270.957l1.254-4.629c2.631 1.188 4.897 1.422 6.8 0.703v0c0.986-0.373 1.691-0.901 2.114-1.585 0.421-0.69 0.494-1.399 0.219-2.128-0.275-0.728-0.869-1.207-1.781-1.437-0.906-0.232-1.943-0.346-3.112-0.342-1.162 0.001-2.34-0.049-3.533-0.15-1.185-0.098-2.308-0.459-3.371-1.084-1.055-0.627-1.825-1.582-2.309-2.863v0c-0.762-2.016-0.579-4.076 0.549-6.182 1.128-2.106 2.847-3.595 5.158-4.468v0c1.049-0.396 2.109-0.668 3.18-0.814 1.078-0.149 2.154-0.186 3.23-0.112v0l-0.43 5.782c-0.815-0.259-1.845-0.39-3.088-0.394-1.243-0.004-2.276 0.15-3.099 0.46-0.816 0.309-1.401 0.756-1.754 1.341-0.362 0.582-0.419 1.199-0.172 1.852 0.244 0.647 0.824 1.088 1.739 1.324 0.906 0.232 1.94 0.347 3.101 0.346 1.166-0.01 2.345 0.025 3.539 0.105 1.197 0.072 2.323 0.421 3.378 1.049 1.053 0.621 1.821 1.572 2.306 2.853v0c0.797 2.11 0.657 4.273-0.422 6.489-1.087 2.212-2.752 3.742-4.994 4.59v0c-1.683 0.636-3.326 0.798-4.93 0.485v0c-1.406-0.265-2.447-0.579-3.122-0.941v0z" fill="#7f8cd9" data-fill-palette-color="primary"></path><path d="M208.853 258.961v0c0.61-0.34 1.161-0.854 1.654-1.543 0.496-0.683 0.843-1.288 1.042-1.813v0l0.307-0.794 2.423 0.957c-0.012 0.475-0.109 1.067-0.291 1.775-0.185 0.702-0.412 1.344-0.681 1.924-0.266 0.571-0.698 1.196-1.296 1.874-0.601 0.673-1.301 1.231-2.099 1.675v0c-1.695 0.944-3.434 1.07-5.217 0.38-1.786-0.696-3.244-2.059-4.373-4.088v0c-1.424-2.557-1.931-5.214-1.521-7.97 0.419-2.753 1.622-4.684 3.611-5.791v0c1.531-0.852 2.96-1.087 4.287-0.704 1.325 0.392 2.418 1.362 3.28 2.911v0c0.513 0.921 0.94 2.054 1.282 3.401v0l-0.266 1.012-7.455 5.096c1.677 2.171 3.448 2.737 5.313 1.698zM203.431 249.221v0c-0.921 0.513-1.489 1.313-1.706 2.402-0.213 1.094-0.051 2.249 0.488 3.463v0l4.973-3.633c-0.207-0.523-0.396-0.94-0.569-1.251v0c-0.78-1.402-1.842-1.729-3.186-0.981z" fill="#7f8cd9" data-fill-palette-color="primary"></path><path d="M210.69 241.772v0l2.942-3.338c1.27 1.357 2.427 2.68 3.473 3.97v0c-0.256-4.018 0.388-6.597 1.931-7.739v0l3.01 4.75c-1.118 0.826-1.924 1.581-2.421 2.265-0.495 0.675-0.858 1.561-1.09 2.659v0l0.766 1.037 5.343 6.569-3.338 3.582-4.855-7.281c-1.983-2.525-3.903-4.683-5.761-6.474z" fill="#7f8cd9" data-fill-palette-color="primary"></path><path d="M229.966 234.838l5.045 3.282 0.34-0.33-2.588-4.366-4.806-7.716 3.577-2.72 4.278 8.271 4.245 7.615-4.025 4.672-7.617-4.785-7.949-4.462 2.884-4.055z" fill="#7f8cd9" data-fill-palette-color="primary"></path><path d="M233.942 220.65l2.391-4.286 6.601 6.063 6.75 5.112-2.392 4.272-6.445-5.919zM229.038 216.893c-0.619-0.516-0.971-1.215-1.056-2.099-0.09-0.888 0.124-1.644 0.644-2.268 0.524-0.629 1.094-0.967 1.709-1.014 0.615-0.047 1.264 0.214 1.945 0.781 0.686 0.571 1.076 1.294 1.17 2.167 0.099 0.878-0.109 1.626-0.625 2.245-0.511 0.614-1.117 0.926-1.817 0.938-0.695 0.016-1.351-0.234-1.97-0.75z" fill="#7f8cd9" data-fill-palette-color="primary"></path><path d="M246.227 209.732c-0.58 0.88-0.711 1.767-0.391 2.661 0.31 0.896 1.115 1.772 2.416 2.629 1.3 0.857 2.506 1.302 3.618 1.336 1.115 0.028 1.984-0.429 2.604-1.371v0c0.314-0.476 0.476-1.045 0.486-1.706 0-0.659-0.069-1.207-0.207-1.644v0l-0.263-0.644 2.542-0.471c0.064 0.123 0.156 0.288 0.276 0.496 0.12 0.208 0.297 0.642 0.529 1.301 0.231 0.65 0.39 1.286 0.479 1.908 0.094 0.625 0.084 1.342-0.031 2.151-0.124 0.811-0.412 1.558-0.862 2.242v0c-0.987 1.497-2.401 2.313-4.244 2.449-1.837 0.14-3.736-0.437-5.698-1.73v0c-2.444-1.611-4.12-3.733-5.03-6.367-0.9-2.636-0.724-4.903 0.529-6.804v0c0.384-0.583 0.851-1.108 1.4-1.574 0.558-0.468 1.214-0.884 1.968-1.247v0l2.305 4.535c-1.033 0.348-1.842 0.965-2.426 1.85z" fill="#7f8cd9" data-fill-palette-color="primary"></path><path d="M262.774 200.712v0c0.306-0.627 0.464-1.365 0.475-2.212 0.016-0.844-0.045-1.538-0.183-2.083v0l-0.201-0.827 2.534-0.601c0.262 0.397 0.521 0.938 0.777 1.623 0.25 0.682 0.43 1.338 0.541 1.967 0.108 0.62 0.111 1.38 0.009 2.279-0.108 0.896-0.363 1.754-0.764 2.575v0c-0.851 1.744-2.205 2.842-4.062 3.295-1.863 0.45-3.839 0.166-5.926-0.853v0c-2.63-1.284-4.566-3.173-5.806-5.668-1.231-2.498-1.348-4.77-0.349-6.815v0c0.768-1.575 1.807-2.584 3.114-3.03 1.311-0.436 2.763-0.265 4.356 0.512v0c0.947 0.462 1.946 1.148 2.997 2.057v0l0.36 0.983-3.202 8.443c2.617 0.821 4.394 0.273 5.33-1.645zM252.756 195.823v0c-0.462 0.947-0.471 1.929-0.025 2.945 0.451 1.019 1.245 1.874 2.38 2.562v0l2.002-5.824c-0.468-0.311-0.862-0.544-1.182-0.7v0c-1.442-0.704-2.5-0.365-3.175 1.017z" fill="#7f8cd9" data-fill-palette-color="primary"></path><path d="M269.556 184.459v0c0.389-1.187 0.06-1.951-0.987-2.294v0c-0.37-0.121-0.798 0.021-1.284 0.427-0.488 0.412-1.013 0.936-1.574 1.572-0.561 0.636-1.161 1.259-1.8 1.869-0.644 0.608-1.401 1.053-2.27 1.333-0.877 0.285-1.772 0.278-2.684-0.021v0c-1.525-0.499-2.638-1.609-3.339-3.329-0.695-1.718-0.755-3.454-0.18-5.209v0c0.268-0.817 0.627-1.589 1.077-2.318 0.455-0.72 1.006-1.377 1.653-1.97v0l3.413 3.651c-0.186 0.116-0.422 0.264-0.708 0.446-0.288 0.188-0.711 0.576-1.271 1.163-0.56 0.587-0.927 1.148-1.102 1.684-0.173 0.53-0.186 0.978-0.038 1.344 0.142 0.364 0.424 0.616 0.845 0.753 0.421 0.138 0.971-0.116 1.648-0.763 0.68-0.653 1.352-1.387 2.014-2.201 0.658-0.823 1.521-1.494 2.588-2.014 1.067-0.519 2.159-0.596 3.276-0.23v0c1.595 0.522 2.781 1.635 3.558 3.338 0.775 1.709 0.883 3.419 0.323 5.128v0c-0.357 1.091-0.93 2.03-1.718 2.818-0.788 0.787-1.489 1.31-2.103 1.568v0l-0.918 0.377-2.255-3.726c0.225-0.082 0.515-0.202 0.871-0.362 0.356-0.159 0.881-0.534 1.577-1.125 0.702-0.59 1.164-1.226 1.388-1.909z" fill="#7f8cd9" data-fill-palette-color="primary"></path></g></svg></g></svg></g></svg></g><g></g></svg></g><defs></defs></svg><rect width="280" height="280" fill="none" stroke="none" visibility="hidden"></rect></g></svg></g></svg>